<svg id="Square" xmlns="http://www.w3.org/2000/svg" viewBox="0 0 1347.13 1347.13"><defs><style>.cls-1{fill:none;stroke:#F5A623;stroke-miterlimit:10;stroke-width:45px;}.cls-2{fill:#F5A623;}</style></defs><title>Josh&amp;apos;s Logo</title><rect class="cls-1" x="22.5" y="22.5" width="1302.13" height="1302.13"/><path class="cls-2" d="M197.54,498.35a109,109,0,0,1-42.63-36.5l28.42-33.32q28.41,40.68,71.54,40.67,28.91,0,43.85-17.64t14.95-51.94V207h-124V164.42H362.18V397.17q0,56.85-27.19,85.5t-80.12,28.67A128.33,128.33,0,0,1,197.54,498.35Z" transform="translate(-76.43 -78.58)"/><path class="cls-2" d="M641.46,499.33q-36-12-56.6-31.12L603,430q19.59,17.64,50.22,28.67a184.52,184.52,0,0,0,63,11q42.63,0,63.7-14.46T801,416.77q0-17.64-11.52-28.67A77,77,0,0,0,761,371.2q-16.9-5.88-47.77-13.23-38.71-9.3-62.48-18.62a103.16,103.16,0,0,1-40.67-28.67Q593.2,291.33,593.2,258.5q0-27.44,14.46-49.49t43.85-35.28q29.4-13.23,73-13.23a231.27,231.27,0,0,1,59.78,7.84q29.4,7.84,50.47,22.54l-16.17,39.2a177.78,177.78,0,0,0-46.06-20.83,172.12,172.12,0,0,0-48-7.1q-41.65,0-62.48,15.19t-20.83,39.2q0,17.64,11.76,28.67t29.15,17.15q17.39,6.13,47.29,13,38.7,9.31,62.23,18.62a104.78,104.78,0,0,1,40.42,28.42Q849,381.49,849,413.83a87.57,87.57,0,0,1-14.7,49.24q-14.7,22.3-44.59,35.28t-73.5,13A234.59,234.59,0,0,1,641.46,499.33Z" transform="translate(-76.43 -78.58)"/><path class="cls-2" d="M1295,164.42v343h-49V354.54H1049V507.42h-49v-343h49V311.91h197V164.42h49Z" transform="translate(-76.43 -78.58)"/><path class="cls-2" d="M210.77,571.42h49V871.79H445.48v42.63H210.77v-343Z" transform="translate(-76.43 -78.58)"/><path class="cls-2" d="M865.15,871.79v42.63H616.23v-343H858.29V614H665.23V719.4h172V761h-172V871.79H865.15Z" transform="translate(-76.43 -78.58)"/><path class="cls-2" d="M1282.18,871.79v42.63H1033.26v-343h242.06V614H1082.26V719.4h172V761h-172V871.79h199.92Z" transform="translate(-76.43 -78.58)"/><path class="cls-2" d="M210.77,977.87H355.32q54.39,0,96.53,21.56t65.42,60.52q23.27,39,23.28,89.42t-23.28,89.42q-23.28,39-65.42,60.51t-96.53,21.56H210.77v-343Zm141.61,300.37q41.64,0,73.25-16.17t48.75-45.33q17.15-29.15,17.15-67.37T474.39,1082q-17.16-29.15-48.75-45.33t-73.25-16.17H259.77v257.74h92.61Z" transform="translate(-76.43 -78.58)"/><path class="cls-2" d="M865.15,1278.24v42.63H616.23v-343H858.29v42.63H665.23v105.35h172v41.65h-172v110.74H865.15Z" transform="translate(-76.43 -78.58)"/><path class="cls-2" d="M1331.18,978.32l-150.43,343h-48.51l-150.92-343h52.92l123.48,281.75,124.46-281.75h49Z" transform="translate(-76.43 -78.58)"/></svg>